<svg xmlns="http://www.w3.org/2000/svg" version="1.1" xmlns:xlink="http://www.w3.org/1999/xlink" xmlns:svgjs="http://svgjs.dev/svgjs" width="1000" height="1000"><style>
    #light-icon {
      display: inline;
    }
    #dark-icon {
      display: none;
    }

    @media (prefers-color-scheme: dark) {
      #light-icon {
        display: none;
      }
      #dark-icon {
        display: inline;
      }
    }
  </style><g id="light-icon"><svg xmlns="http://www.w3.org/2000/svg" version="1.1" xmlns:xlink="http://www.w3.org/1999/xlink" xmlns:svgjs="http://svgjs.dev/svgjs" width="1000" height="1000"><g><g transform="matrix(1.25,0,0,1.25,0,0)"><svg xmlns="http://www.w3.org/2000/svg" version="1.1" xmlns:xlink="http://www.w3.org/1999/xlink" xmlns:svgjs="http://svgjs.dev/svgjs" width="800px" height="800px"><svg width="800px" height="800px" viewBox="0 0 50 50" id="Message_And_Communication_Icons" version="1.1" xml:space="preserve" xmlns="http://www.w3.org/2000/svg" xmlns:xlink="http://www.w3.org/1999/xlink">

    <g>
        <g>
            <polygon points="34.5,43 25,43 25,39.9 32.9,39.9" style="fill:#4DE0F9;"></polygon>
        </g>

        <g>
            <rect height="8.4" style="fill:#4DE0F9;" width="2.8" x="33.9" y="10.2"></rect>
        </g>

        <g>
            <path d="M37.6,19.6v15.5L36,38.7l1.2,2.9c0.1,0.1,0.3,0.1,0.4,0l2-4.5V19.6H37.6z" style="fill:#4DE0F9;"></path>
        </g>

        <g>
            <polygon points="34.3,42.3 13.8,42.3 13.8,8.4 36,8.4 36,16.9 34.8,16.9 34.8,9.6 15,9.6 15,41.1 34.3,41.1" style="fill:#0D5FC3;"></polygon>
        </g>

        <g>
            <rect height="1.2" style="fill:#0D5FC3;" width="5.9" x="24.8" y="13.7"></rect>
        </g>

        <g>
            <rect height="1.2" style="fill:#0D5FC3;" width="3.3" x="19.3" y="13.7"></rect>
        </g>

        <g>
            <rect height="1.2" style="fill:#0D5FC3;" width="11.3" x="19.3" y="17.3"></rect>
        </g>

        <g>
            <rect height="1.2" style="fill:#0D5FC3;" width="2.3" x="28.3" y="20.9"></rect>
        </g>

        <g>
            <rect height="1.2" style="fill:#0D5FC3;" width="6.8" x="19.3" y="20.9"></rect>
        </g>

        <g>
            <rect height="1.2" style="fill:#0D5FC3;" width="4.7" x="25.9" y="24.5"></rect>
        </g>

        <g>
            <rect height="1.2" style="fill:#0D5FC3;" width="4.2" x="19.3" y="24.5"></rect>
        </g>

        <g>
            <rect height="1.2" style="fill:#0D5FC3;" width="11.3" x="19.3" y="28.1"></rect>
        </g>

        <g>
            <rect height="1.2" style="fill:#0D5FC3;" width="4.7" x="25.9" y="31.7"></rect>
        </g>

        <g>
            <rect height="1.2" style="fill:#0D5FC3;" width="4.2" x="19.3" y="31.7"></rect>
        </g>

        <g>
            <rect height="1.2" style="fill:#0D5FC3;" width="11.3" x="19.3" y="35.3"></rect>
        </g>

        <g>
            <path d="M39.2,36.7h-5.5V18h5.5V36.7z M34.9,35.5H38V19.2h-3.1V35.5z" style="fill:#0D5FC3;"></path>
        </g>

        <g>
            <path d="M36.4,41.3C36.4,41.3,36.4,41.3,36.4,41.3c-0.3,0-0.6-0.2-0.7-0.4l-1.9-4.5l1.1-0.5l1.6,3.6l1.6-3.6l1.1,0.5l-2,4.5C37,41.1,36.7,41.3,36.4,41.3z" style="fill:#0D5FC3;"></path>
        </g>

        <g>
            <rect height="2.8" style="fill:#4DE0F9;" width="1.1" x="35.6" y="29.4"></rect>
        </g>

        <g>
            <rect height="1.1" style="fill:#4DE0F9;" width="1.1" x="35.6" y="32.8"></rect>
        </g>
    </g>

</svg></svg></g></g></svg></g><g id="dark-icon"><svg xmlns="http://www.w3.org/2000/svg" version="1.1" xmlns:xlink="http://www.w3.org/1999/xlink" xmlns:svgjs="http://svgjs.dev/svgjs" width="1000" height="1000"><g clip-path="url(#SvgjsClipPath1023)"><rect width="1000" height="1000" fill="#ffffff"></rect><g transform="matrix(1,0,0,1,100,100)"><svg xmlns="http://www.w3.org/2000/svg" version="1.1" xmlns:xlink="http://www.w3.org/1999/xlink" xmlns:svgjs="http://svgjs.dev/svgjs" width="800px" height="800px"><svg width="800px" height="800px" viewBox="0 0 50 50" id="Message_And_Communication_Icons" version="1.1" xml:space="preserve" xmlns="http://www.w3.org/2000/svg" xmlns:xlink="http://www.w3.org/1999/xlink">

    <g>
        <g>
            <polygon points="34.5,43 25,43 25,39.9 32.9,39.9" style="fill:#4DE0F9;"></polygon>
        </g>

        <g>
            <rect height="8.4" style="fill:#4DE0F9;" width="2.8" x="33.9" y="10.2"></rect>
        </g>

        <g>
            <path d="M37.6,19.6v15.5L36,38.7l1.2,2.9c0.1,0.1,0.3,0.1,0.4,0l2-4.5V19.6H37.6z" style="fill:#4DE0F9;"></path>
        </g>

        <g>
            <polygon points="34.3,42.3 13.8,42.3 13.8,8.4 36,8.4 36,16.9 34.8,16.9 34.8,9.6 15,9.6 15,41.1 34.3,41.1" style="fill:#0D5FC3;"></polygon>
        </g>

        <g>
            <rect height="1.2" style="fill:#0D5FC3;" width="5.9" x="24.8" y="13.7"></rect>
        </g>

        <g>
            <rect height="1.2" style="fill:#0D5FC3;" width="3.3" x="19.3" y="13.7"></rect>
        </g>

        <g>
            <rect height="1.2" style="fill:#0D5FC3;" width="11.3" x="19.3" y="17.3"></rect>
        </g>

        <g>
            <rect height="1.2" style="fill:#0D5FC3;" width="2.3" x="28.3" y="20.9"></rect>
        </g>

        <g>
            <rect height="1.2" style="fill:#0D5FC3;" width="6.8" x="19.3" y="20.9"></rect>
        </g>

        <g>
            <rect height="1.2" style="fill:#0D5FC3;" width="4.7" x="25.9" y="24.5"></rect>
        </g>

        <g>
            <rect height="1.2" style="fill:#0D5FC3;" width="4.2" x="19.3" y="24.5"></rect>
        </g>

        <g>
            <rect height="1.2" style="fill:#0D5FC3;" width="11.3" x="19.3" y="28.1"></rect>
        </g>

        <g>
            <rect height="1.2" style="fill:#0D5FC3;" width="4.7" x="25.9" y="31.7"></rect>
        </g>

        <g>
            <rect height="1.2" style="fill:#0D5FC3;" width="4.2" x="19.3" y="31.7"></rect>
        </g>

        <g>
            <rect height="1.2" style="fill:#0D5FC3;" width="11.3" x="19.3" y="35.3"></rect>
        </g>

        <g>
            <path d="M39.2,36.7h-5.5V18h5.5V36.7z M34.9,35.5H38V19.2h-3.1V35.5z" style="fill:#0D5FC3;"></path>
        </g>

        <g>
            <path d="M36.4,41.3C36.4,41.3,36.4,41.3,36.4,41.3c-0.3,0-0.6-0.2-0.7-0.4l-1.9-4.5l1.1-0.5l1.6,3.6l1.6-3.6l1.1,0.5l-2,4.5C37,41.1,36.7,41.3,36.4,41.3z" style="fill:#0D5FC3;"></path>
        </g>

        <g>
            <rect height="2.8" style="fill:#4DE0F9;" width="1.1" x="35.6" y="29.4"></rect>
        </g>

        <g>
            <rect height="1.1" style="fill:#4DE0F9;" width="1.1" x="35.6" y="32.8"></rect>
        </g>
    </g>

</svg></svg></g></g><defs><clipPath id="SvgjsClipPath1023"><rect width="1000" height="1000" x="0" y="0" rx="500" ry="500"></rect></clipPath></defs></svg></g></svg>